<svg width="32" height="32" xmlns="http://www.w3.org/2000/svg">

 <title/>
 <g>
  <title>background</title>
  <rect fill="none" id="canvas_background" height="402" width="582" y="-1" x="-1"/>
 </g>
 <g>
  <title>Layer 1</title>
  <path fill="#4a90e2" id="svg_1" d="m2,29a1,1 0 0 1 -1,-1.11l0.77,-7a1,1 0 0 1 0.29,-0.59l16.36,-16.36a3.2,3.2 0 0 1 4.53,0l3.11,3.11a3.2,3.2 0 0 1 0,4.53l-16.35,16.35a1,1 0 0 1 -0.59,0.29l-7,0.77l-0.12,0.01zm7.12,-1.79l-0.12,0l0.12,0zm-5.27,-5.76l-0.6,5.42l5.42,-0.6l16.1,-16.1a1.2,1.2 0 0 0 0,-1.7l-3.24,-3.12a1.2,1.2 0 0 0 -1.7,0l-15.98,16.1z" class="cls-1"/>
  <path fill="#4a90e2" id="svg_2" d="m23.083857,14.21a1,1 0 0 1 -0.71,-0.29l-6.21,-6.23a1,1 0 0 1 1.42,-1.42l6.23,6.23a1,1 0 0 1 0,1.42a1,1 0 0 1 -0.73,0.29z" class="cls-1"/>
  <rect fill="#4a90e2" id="svg_3" y="16.728959" x="6.794881" width="11.01" transform="rotate(-45 12.299880981445309,17.72895812988281) " height="2" class="cls-1"/>
  <path fill="#4a90e2" id="svg_4" d="m30,29l-16,0a1,1 0 0 1 0,-2l16,0a1,1 0 0 1 0,2z" class="cls-1"/>
 </g>
</svg>